<?xml version="1.0" encoding="iso-8859-1"?>
<svg xmlns="http://www.w3.org/2000/svg" xmlns:xlink="http://www.w3.org/1999/xlink" x="0px" y="0px"
	 viewBox="0 0 612 612" style="enable-background:new 0 0 612 612;" xml:space="preserve">
<g>
	<path d="M610.089,233.999c-4.591-14.132-16.807-24.432-31.512-26.568l-164.157-23.856l-73.414-148.75
		c-6.577-13.325-20.147-21.76-35.007-21.76c-14.86,0-28.43,8.435-35.005,21.76l-73.414,148.75L33.424,207.432
		c-14.705,2.136-26.921,12.436-31.512,26.568s-0.762,29.645,9.879,40.015l118.785,115.787l-28.043,163.495
		c-2.513,14.646,3.507,29.446,15.529,38.18s27.958,9.885,41.112,2.972l146.825-77.192l146.825,77.192
		c5.713,3.004,11.949,4.485,18.162,4.485c8.095,0,16.149-2.515,22.95-7.455c12.021-8.734,18.041-23.536,15.529-38.18
		l-28.041-163.495l118.785-115.789C610.851,263.642,614.68,248.129,610.089,233.999z"/>
</g>
<g>
</g>
<g>
</g>
<g>
</g>
<g>
</g>
<g>
</g>
<g>
</g>
<g>
</g>
<g>
</g>
<g>
</g>
<g>
</g>
<g>
</g>
<g>
</g>
<g>
</g>
<g>
</g>
<g>
</g>
</svg>
