<?xml version="1.0" encoding="utf-8"?>
<svg xmlns="http://www.w3.org/2000/svg" xmlns:xlink="http://www.w3.org/1999/xlink" x="0px" y="0px" viewBox="0 0 1000 1000" enable-background="new 0 0 1000 1000" xml:space="preserve">
<g>
<g transform="translate(0.000000,511.000000) scale(0.100000,-0.100000)">
<path d="M4523.7,2624.4c-821.1-83.9-1746.6-421.9-2642.6-966.3C1332.1,1324.7,731,868.7,338.6,485.4C166.2,319.8,123.1,263.1,109.5,195C80,15.9,109.5-45.4,338.6-267.7c873.3-852.9,2198-1644.5,3257.3-1948.5c950.4-274.5,1789.7-281.3,2735.6-20.4c1084.3,297.1,2433.9,1093.3,3329.9,1968.9C9890.5-45.4,9920,15.9,9890.5,195c-36.3,204.2-979.9,984.5-1771.6,1463.1C6871.4,2415.7,5662.4,2740.1,4523.7,2624.4z M5403.8,1898.6c880.1-95.3,1928.1-539.9,2871.7-1215.8c245-176.9,716.8-553.5,716.8-571.6c0-49.9-762.1-623.8-1154.6-871c-1143.2-714.5-2247.9-1029.8-3241.4-920.9C3716.1-1585.6,2668.2-1141,1724.5-465c-265.4,190.5-716.8,553.5-716.8,576.2c0,20.4,462.7,392.4,725.9,580.7c483.1,349.3,1138.7,707.7,1651.3,905.1c399.2,154.2,814.3,256.3,1286.1,310.8C4823.1,1925.8,5197.3,1921.2,5403.8,1898.6z"/><path d="M4716.5,1719.4c-328.9-61.2-614.7-213.2-864.2-462.7c-204.2-204.2-324.4-397-412.8-666.9c-49.9-152-59-213.2-56.7-480.9c0-269.9,6.8-326.6,59-487.7c86.2-260.8,206.4-451.4,412.8-657.8c206.4-206.4,397-326.6,657.8-412.8c161.1-52.2,217.8-59,487.7-59c269.9,0,326.6,6.8,487.7,59c260.9,86.2,451.4,206.4,657.8,412.8c206.4,206.4,326.7,397,412.8,657.8c52.2,161.1,59,217.8,59,487.7c0,269.9-6.8,326.6-59,487.7c-86.2,260.9-206.4,451.4-412.8,657.8c-315.3,317.6-644.2,460.5-1077.5,476.3C4936.5,1735.2,4780,1730.7,4716.5,1719.4z M5372,930c206.4-95.3,338-226.8,440.1-431c79.4-163.3,83.9-183.7,83.9-390.2c0-206.4-4.5-226.8-83.9-390.2c-102.1-206.4-233.6-333.4-444.6-433.2c-138.4-65.8-172.4-72.6-367.5-72.6c-195.1,0-229.1,6.8-367.5,72.6c-211,99.8-342.5,226.8-444.6,433.2C4108.6-118,4104-97.6,4104,106.6c0,197.3,6.8,231.4,72.6,369.7c90.7,192.8,220,333.4,390.1,421.9c176.9,95.3,276.7,118,483.2,108.9C5188.3,1000.3,5258.6,982.2,5372,930z"/><path d="M4875.2,596.5c-113.4-111.1-34-306.2,124.8-306.2c93,0,181.5-88.5,181.5-181.5c0-93,88.4-181.5,181.5-181.5c95.3,0,181.5,88.5,181.5,183.7c0,140.6-52.2,256.3-170.1,372C5204.1,655.5,4981.9,705.4,4875.2,596.5z"/>
</g>
</g>
</svg>